<svg xmlns="http://www.w3.org/2000/svg" viewBox="0 0 24 24" fill="none">
  <circle cx="12" cy="12" r="3.2" fill="#A8B5B2"/>
  <path d="M12 3.5l1.2 2.1 2.3.4-1.5 1.8.5 2.3L12 9.1l-2.5 1 0.5-2.3-1.5-1.8 2.3-.4L12 3.5z" fill="#A8B5B2"/>
  <path d="M12 14.9l2.5 1-.5 2.3 1.5 1.8-2.3.4L12 22.5l-1.2-2.1-2.3-.4 1.5-1.8-.5-2.3 2.5-1z" fill="#A8B5B2"/>
  <path d="M3.8 8.2l2.4-.2 1.3-2 2 1.2 2.1-1.1.7 2.3 2.4.3-.7 2.3 1.1 2.1-2 1.3.2 2.4-2.3.7-2.1 1.1-1.2-2-2.3-.7.2-2.4-2-1.3 1.1-2.1-2.3-.7z" fill="none" stroke="#A8B5B2" stroke-width="1.4"/>
</svg>
