<svg xmlns="http://www.w3.org/2000/svg" viewBox="0 0 24 24" fill="none">
  <path fill="#000" d="M19.14 12.94c.04-.3.06-.61.06-.94s-.02-.64-.06-.94l2.03-1.58a.49.49 0 0 0 .12-.61l-1.92-3.32a.49.49 0 0 0-.59-.22l-2.39.96a7.03 7.03 0 0 0-1.62-.94l-.36-2.54A.48.48 0 0 0 13.9 2h-3.8a.48.48 0 0 0-.48.42l-.36 2.54c-.58.23-1.12.54-1.62.94l-2.39-.96a.49.49 0 0 0-.59.22L2.75 8.48a.49.49 0 0 0 .12.61l2.03 1.58c-.04.3-.06.62-.06.94s.02.64.06.94l-2.03 1.58a.49.49 0 0 0-.12.61l1.92 3.32c.13.22.39.31.59.22l2.39-.96c.5.4 1.04.72 1.62.94l.36 2.54c.05.24.25.42.48.42h3.8c.24 0 .43-.18.48-.42l.36-2.54c.58-.23 1.12-.54 1.62-.94l2.39.96c.22.09.46 0 .59-.22l1.92-3.32a.49.49 0 0 0-.12-.61l-2.03-1.58zM12 15.6A3.6 3.6 0 1 1 12 8.4a3.6 3.6 0 0 1 0 7.2z"/>
</svg>
