<svg xmlns="http://www.w3.org/2000/svg" viewBox="0 0 24 24" fill="none">
  <path fill="#000" d="M4.2 5.1c1.6-.85 3.5-1.05 5.15.05.5.35.95.8 1.35 1.3.4-.5.85-.95 1.35-1.3 1.65-1.1 3.55-.9 5.15-.05v13.5c-1.5-.45-3.15-.55-4.65.35-.55.35-1.05.85-1.55 1.35-.5-.5-1-1-1.55-1.35-1.5-.9-3.15-.8-4.65-.35V5.1zm1.7.95v11.2c1-.2 2.05-.15 2.95.4.4.25.75.55 1.1.95V8.05c-.4-.5-.85-.9-1.35-1.2-1-.65-1.9-.55-2.7-.05zm11.2 0c-.8-.5-1.7-.6-2.7-.05-.5.3-.95.7-1.35 1.2v10.55c.35-.4.7-.7 1.1-.95.9-.55 1.95-.6 2.95-.4V6.05z"/>
</svg>
