<svg xmlns="http://www.w3.org/2000/svg" viewBox="0 0 24 24" fill="none">
  <path d="M12 2.2 4.6 8.4 12 21.8 19.4 8.4 12 2.2Z" fill="#3DDCFF"/>
  <path d="M12 2.2 7.2 8.4 12 21.8V2.2Z" fill="#1E9FD4"/>
  <path d="M12 2.2 16.8 8.4 12 21.8V2.2Z" fill="#7AECFF"/>
  <path d="M4.6 8.4h14.8L12 2.2 4.6 8.4Z" fill="#B8F4FF"/>
  <path d="M7.2 8.4h9.6L12 2.2 7.2 8.4Z" fill="#E8FBFF"/>
  <path d="M4.6 8.4 12 21.8 7.2 8.4H4.6Z" fill="#1490C4" opacity="0.9"/>
  <path d="M19.4 8.4 12 21.8 16.8 8.4h2.6Z" fill="#2BC4F0" opacity="0.85"/>
  <path d="M12 2.2 4.6 8.4 12 21.8 19.4 8.4 12 2.2Z" stroke="#FFF3B0" stroke-width="0.7" stroke-linejoin="round"/>
</svg>
