<svg xmlns="http://www.w3.org/2000/svg" viewBox="0 0 1024 1024" role="img" aria-label="Royal Match Poker">
  <defs>
    <radialGradient id="felt" cx="50%" cy="42%" r="72%">
      <stop offset="0%" stop-color="#1a6040"/>
      <stop offset="62%" stop-color="#0d4a2e"/>
      <stop offset="100%" stop-color="#083320"/>
    </radialGradient>
    <linearGradient id="gold" x1="0" y1="0" x2="0" y2="1">
      <stop offset="0%" stop-color="#f5d87a"/>
      <stop offset="42%" stop-color="#e8c547"/>
      <stop offset="100%" stop-color="#b8973a"/>
    </linearGradient>
    <linearGradient id="goldDark" x1="0" y1="0" x2="0" y2="1">
      <stop offset="0%" stop-color="#c9a030"/>
      <stop offset="100%" stop-color="#8b6914"/>
    </linearGradient>
    <filter id="shadow" x="-20%" y="-20%" width="140%" height="140%">
      <feDropShadow dx="0" dy="10" stdDeviation="18" flood-color="#000" flood-opacity="0.35"/>
    </filter>
  </defs>

  <rect width="1024" height="1024" fill="url(#felt)"/>

  <g filter="url(#shadow)">
    <rect x="182" y="248" width="660" height="528" rx="56" fill="url(#gold)" stroke="#8b6914" stroke-width="10"/>
    <rect x="206" y="272" width="612" height="480" rx="44" fill="none" stroke="#f5d87a" stroke-width="6" opacity="0.55"/>
  </g>

  <path fill="url(#goldDark)" stroke="#6b5010" stroke-width="6" d="M512 118 L584 214 L656 182 L628 286 L724 286 L668 352 L696 456 L612 404 L512 468 L412 404 L328 456 L356 352 L300 286 L396 286 L368 182 L440 214 Z"/>

  <rect x="292" y="360" width="440" height="300" rx="28" fill="#fffdf8" stroke="#d4c4a8" stroke-width="8"/>
  <rect x="312" y="380" width="400" height="260" rx="20" fill="#faf7f0" stroke="#e8dcc8" stroke-width="4"/>

  <path fill="#1e293b" d="M512 430 C492 430 478 448 478 468 C478 492 498 512 512 548 C526 512 546 492 546 468 C546 448 532 430 512 430 Z M512 456 C520 456 526 462 526 470 C526 478 520 484 512 484 C504 484 498 478 498 470 C498 462 504 456 512 456 Z"/>

  <text x="512" y="618" text-anchor="middle" font-size="54" font-family="Georgia, serif" font-weight="700" fill="#1e293b">A</text>

  <g font-size="52" font-family="Segoe UI Symbol, Noto Sans Symbols2, sans-serif" text-anchor="middle">
    <text x="372" y="712" fill="#1e293b">&#9824;</text>
    <text x="452" y="712" fill="#c41e3a">&#9829;</text>
    <text x="572" y="712" fill="#15803d">&#9827;</text>
    <text x="652" y="712" fill="#1d4ed8">&#9830;</text>
  </g>
</svg>
