<svg xmlns="http://www.w3.org/2000/svg" viewBox="0 0 64 64" role="img" aria-label="Royal Poker Match">
  <defs>
    <radialGradient id="felt" cx="50%" cy="42%" r="68%">
      <stop offset="0%" stop-color="#0D2B22"/>
      <stop offset="100%" stop-color="#061A17"/>
    </radialGradient>
    <linearGradient id="gold" x1="0" y1="0" x2="0" y2="1">
      <stop offset="0%" stop-color="#FFD700"/>
      <stop offset="100%" stop-color="#C99A2E"/>
    </linearGradient>
  </defs>
  <rect width="64" height="64" rx="12" fill="url(#felt)"/>
  <rect x="3" y="3" width="58" height="58" rx="10" fill="none" stroke="#C99A2E" stroke-width="1.5"/>
  <!-- Crown -->
  <path fill="url(#gold)" d="M16 38 L20 22 L28 32 L32 18 L36 32 L44 22 L48 38 Z"/>
  <rect x="15" y="38" width="34" height="6" rx="1.5" fill="url(#gold)"/>
  <circle cx="20" cy="21" r="2.2" fill="#FFD700"/>
  <circle cx="32" cy="17" r="2.4" fill="#FFD700"/>
  <circle cx="44" cy="21" r="2.2" fill="#FFD700"/>
  <!-- Spade cutout -->
  <path fill="#1B1B1B" d="M32 26c-3.2 3.4-5.2 5.6-5.2 8 0 2.2 1.7 3.6 5.2 3.6s5.2-1.4 5.2-3.6c0-2.4-2-4.6-5.2-8z"/>
</svg>
