<svg xmlns="http://www.w3.org/2000/svg" viewBox="0 0 64 64" role="img" aria-label="Royal Match Poker">
  <defs>
    <radialGradient id="felt" cx="50%" cy="44%" r="70%">
      <stop offset="0%" stop-color="#1a6040"/>
      <stop offset="62%" stop-color="#0d4a2e"/>
      <stop offset="100%" stop-color="#083320"/>
    </radialGradient>
  </defs>
  <rect width="64" height="64" rx="10" fill="url(#felt)"/>
  <g transform="translate(32 33) rotate(-8)">
    <rect x="-11" y="-15" width="22" height="30" rx="2.5" fill="#fffdf8" stroke="#d8ccb8" stroke-width="0.8"/>
    <text x="-7.5" y="-10" font-family="Georgia, serif" font-size="6.5" font-weight="700" fill="#1e293b">A</text>
    <path fill="#1e293b" transform="translate(0 1) scale(0.11)" d="M0 -118 C-52 -118 -92 -78 -92 -26 C-92 34 -34 92 0 168 C34 92 92 34 92 -26 C92 -78 52 -118 0 -118 Z M0 -82 C32 -82 56 -58 56 -26 C56 12 28 48 0 96 C-28 48 -56 12 -56 -26 C-56 -58 -32 -82 0 -82 Z"/>
  </g>
</svg>
