<svg xmlns="http://www.w3.org/2000/svg" viewBox="0 0 64 64" role="img" aria-label="Royal Match Poker">
  <defs>
    <radialGradient id="felt" cx="50%" cy="42%" r="72%">
      <stop offset="0%" stop-color="#1a6040"/>
      <stop offset="62%" stop-color="#0d4a2e"/>
      <stop offset="100%" stop-color="#083320"/>
    </radialGradient>
    <linearGradient id="gold" x1="0" y1="0" x2="0" y2="1">
      <stop offset="0%" stop-color="#f5d87a"/>
      <stop offset="42%" stop-color="#e8c547"/>
      <stop offset="100%" stop-color="#b8973a"/>
    </linearGradient>
  </defs>
  <rect width="64" height="64" rx="10" fill="url(#felt)"/>
  <rect x="8" y="14" width="48" height="38" rx="5" fill="url(#gold)" stroke="#8b6914" stroke-width="1.2"/>
  <rect x="16" y="22" width="32" height="22" rx="3" fill="#fffdf8" stroke="#d4c4a8" stroke-width="1"/>
  <path fill="#1e293b" d="M32 27.5c-1.2 0-2.2 1-2.2 2.2 0 1.8 1.5 3.2 2.2 5.2.7-2 2.2-3.4 2.2-5.2 0-1.2-1-2.2-2.2-2.2zm0 1.6c.4 0 .8.4.8.8 0 .5-.4.8-.8.8s-.8-.3-.8-.8c0-.4.4-.8.8-.8z"/>
  <text x="32" y="52" text-anchor="middle" font-size="8" font-family="Segoe UI Symbol, sans-serif" fill="#c41e3a">&#9829;</text>
</svg>
